<svg xmlns="http://www.w3.org/2000/svg" width="31" height="29" viewBox="0 0 31 29">
    <g fill="none" fill-rule="nonzero">
        <path fill="#C7C7C7" d="M10 0l5.196 3-3 5.196-5.196-3z"/>
        <path fill="#989898" d="M16.471 0l6.99.366-.47 8.988L16 8.988z"/>
        <path fill="#C7C7C7" d="M24 1.764L27.926 1l.954 4.908-3.926.764z"/>
        <g stroke-linecap="round" stroke-linejoin="round" stroke-width="2" transform="translate(1 3)">
            <circle cx="11" cy="23" r="2" stroke="#747474"/>
            <circle cx="21" cy="23" r="2" stroke="#747474"/>
            <path fill="#C20100" stroke="#C20100" d="M5 3h24l-2.138 10.288a1 1 0 0 1-.87.791L8.429 16"/>
            <path stroke="#747474" d="M0 0h1.838a2 2 0 0 1 1.94 1.512l3.578 14.22A3 3 0 0 0 10.266 18H25"/>
        </g>
    </g>
</svg>
