<svg xmlns="http://www.w3.org/2000/svg" width="27" height="27" viewBox="0 0 27 27">
    <g fill="none" fill-rule="evenodd" stroke-width="2">
        <path stroke="#C20100" d="M4.917 26H2.083C1.485 26 1 25.612 1 25.133V14.867c0-.479.485-.867 1.083-.867h2.834c.598 0 1.083.388 1.083.867v10.266c0 .479-.485.867-1.083.867z"/>
        <path stroke="#747474" d="M14.917 26h-2.834c-.598 0-1.083-.416-1.083-.929V6.93c0-.513.485-.929 1.083-.929h2.834c.598 0 1.083.416 1.083.929V25.07c0 .513-.485.929-1.083.929z"/>
        <path stroke="#C20100" d="M24.917 26h-2.834c-.598 0-1.083-.428-1.083-.956V1.956c0-.528.485-.956 1.083-.956h2.834c.598 0 1.083.428 1.083.956v23.088c0 .528-.485.956-1.083.956z"/>
    </g>
</svg>
