<svg xmlns="http://www.w3.org/2000/svg" width="20" height="20" viewBox="0 0 20 20">
    <g fill="none" fill-rule="evenodd">
        <path fill="#C20100" d="M3.133 20H.867C.388 20 0 19.69 0 19.307v-8.214c0-.383.388-.693.867-.693h2.266c.479 0 .867.31.867.693v8.214c0 .383-.388.693-.867.693z"/>
        <path fill="#747474" d="M11.133 20H8.867C8.388 20 8 19.667 8 19.257V4.743c0-.41.388-.743.867-.743h2.266c.479 0 .867.333.867.743v14.514c0 .41-.388.743-.867.743z"/>
        <path fill="#C20100" d="M19.133 20h-2.266c-.479 0-.867-.342-.867-.765V.765c0-.423.388-.765.867-.765h2.266c.479 0 .867.342.867.765v18.47c0 .423-.388.765-.867.765z"/>
    </g>
</svg>
