<svg xmlns="http://www.w3.org/2000/svg" width="27" height="27" viewBox="0 0 27 27">
    <g fill="none" fill-rule="evenodd" stroke-linecap="round" stroke-linejoin="round" stroke-width="2">
        <path fill="#C20100" stroke="#C20100" d="M18.793 1c-1.948 0-3.873.849-5.293 2.306C12.08 1.849 10.155 1 8.206 1 4.165 1 1 4.423 1 8.794c0 2.446.931 4.811 2.931 7.444 1.744 2.297 4.174 4.671 7.412 7.77l1.633 1.758A.712.712 0 0 0 13.5 26a.714.714 0 0 0 .524-.234l1.632-1.758c3.239-3.099 5.667-5.472 7.413-7.77C25.068 13.605 26 11.24 26 8.794 26 4.423 22.834 1 18.793 1z"/>
        <path stroke="#FFF" d="M8.154 5C6.777 5.29 5.632 6.39 5 7.934"/>
    </g>
</svg>
