<svg xmlns="http://www.w3.org/2000/svg" xmlns:xlink="http://www.w3.org/1999/xlink" width="19" height="19" viewBox="0 0 19 19">
    <defs>
        <path id="a" d="M0 0h19v19H0z"/>
    </defs>
    <g fill="none" fill-rule="evenodd">
        <mask id="b" fill="#fff">
            <use xlink:href="#a"/>
        </mask>
        <path fill="#FFF" d="M5.193 1.73A3.468 3.468 0 0 0 1.73 5.194v8.613a3.467 3.467 0 0 0 3.463 3.463h8.614a3.467 3.467 0 0 0 3.463-3.463V5.194a3.468 3.468 0 0 0-3.463-3.464H5.193zM13.807 19H5.193A5.2 5.2 0 0 1 0 13.807V5.194A5.199 5.199 0 0 1 5.193 0h8.614A5.199 5.199 0 0 1 19 5.194v8.613A5.2 5.2 0 0 1 13.807 19zm.54-15.569a1.22 1.22 0 1 0 .001 2.442 1.22 1.22 0 0 0 0-2.442zM9.5 6.746A2.758 2.758 0 0 0 6.746 9.5 2.758 2.758 0 0 0 9.5 12.255 2.758 2.758 0 0 0 12.254 9.5 2.758 2.758 0 0 0 9.5 6.746zm0 7.24A4.49 4.49 0 0 1 5.016 9.5 4.49 4.49 0 0 1 9.5 5.016 4.49 4.49 0 0 1 13.984 9.5 4.49 4.49 0 0 1 9.5 13.985z" mask="url(#b)"/>
    </g>
</svg>
