<svg xmlns="http://www.w3.org/2000/svg" xmlns:xlink="http://www.w3.org/1999/xlink" width="40" height="40" viewBox="0 0 40 40">
    <defs>
        <path id="a" d="M0 0h40v40H0z"/>
    </defs>
    <g fill="none" fill-rule="evenodd">
        <path fill="#FFF" d="M25.323 15.835a1.158 1.158 0 1 1 0-2.316 1.158 1.158 0 0 1 0 2.316M20 25.091A5.097 5.097 0 0 1 14.91 20 5.097 5.097 0 0 1 20 14.909 5.098 5.098 0 0 1 25.091 20a5.098 5.098 0 0 1-5.09 5.091m4.087-13.285h-8.175a4.11 4.11 0 0 0-4.108 4.107v8.174a4.112 4.112 0 0 0 4.108 4.108h8.175a4.112 4.112 0 0 0 4.107-4.108v-8.174a4.111 4.111 0 0 0-4.107-4.107"/>
        <path fill="#FFF" d="M20 16.564A3.439 3.439 0 0 0 16.565 20 3.438 3.438 0 0 0 20 23.436 3.44 3.44 0 0 0 23.436 20 3.44 3.44 0 0 0 20 16.564"/>
        <g>
            <mask id="b" fill="#fff">
                <use xlink:href="#a"/>
            </mask>
            <path fill="#FFF" d="M29.85 24.087a5.77 5.77 0 0 1-5.762 5.764h-8.175a5.77 5.77 0 0 1-5.763-5.764v-8.174a5.77 5.77 0 0 1 5.763-5.764h8.175a5.77 5.77 0 0 1 5.763 5.764v8.174zM20 0C8.955 0 0 8.954 0 20s8.955 20 20 20c11.046 0 20-8.954 20-20S31.046 0 20 0z" mask="url(#b)"/>
        </g>
    </g>
</svg>
