<svg xmlns="http://www.w3.org/2000/svg" viewBox="0 0 170.2 28.25"><defs><style>.cls-1{fill:#c20100;}</style></defs><title>Ресурс 1</title><g id="Слой_2" data-name="Слой 2"><g id="Слой_1-2" data-name="Слой 1"><path class="cls-1" d="M67.4,27.42H22.07a6.31,6.31,0,0,1-5-2.24A6,6,0,0,1,15.8,21,5.91,5.91,0,0,1,12,18.92a6.09,6.09,0,0,1-1.31-4.25,5.92,5.92,0,0,1-3.92-2.12A6.13,6.13,0,0,1,5.44,8.33,6,6,0,0,1,1.33,6.18,6.31,6.31,0,0,1,.16.8L.33,0H73.14l-.25,1.2h0l-5.32,25.4v0Zm-45.33-2H64.18L53.39,14.53l-7.44,5-5.38-5-9,6.38,0,0-3.92,2.78a1,1,0,0,1-1.39-.23,1,1,0,0,1,.23-1.4l1.39-1h-10a4,4,0,0,0,.86,2.82A4.25,4.25,0,0,0,22.07,25.42Zm33-12,10.9,11,4.44-21.2ZM17,19.1H30.66l8.41-6L33.91,8.37H7.44a4.15,4.15,0,0,0,.87,2.92,4.11,4.11,0,0,0,3.29,1.44H24.73a1,1,0,0,1,0,2H12.67a4.21,4.21,0,0,0,.86,2.93,4.14,4.14,0,0,0,3.3,1.44H17Zm24.4-6.58L46.15,17,53,12.42l0,0L68.61,2H30L41.32,12.49ZM6.59,6.37H31.74L27,2H2a4.14,4.14,0,0,0,.87,2.92A4.14,4.14,0,0,0,6.17,6.37h.42Z"/><path class="cls-1" d="M82.24,6.8a29.32,29.32,0,0,1,4.48-.34c3,0,5.18.7,6.61,2a7.52,7.52,0,0,1,2.3,5.86,8.65,8.65,0,0,1-2.35,6.35c-1.52,1.52-4,2.34-7.22,2.34a34.19,34.19,0,0,1-3.82-.19Zm2.11,14.43a12.88,12.88,0,0,0,2.13.12c4.5,0,7-2.52,7-6.93,0-3.85-2.16-6.29-6.61-6.29a11.3,11.3,0,0,0-2.47.22Z"/><path class="cls-1" d="M100.54,17.43a3.76,3.76,0,0,0,4,4.07,7.69,7.69,0,0,0,3.25-.61l.36,1.53a9.65,9.65,0,0,1-3.9.72c-3.61,0-5.76-2.37-5.76-5.91s2.08-6.32,5.5-6.32c3.82,0,4.84,3.37,4.84,5.52a9.24,9.24,0,0,1-.07,1Zm6.25-1.53c0-1.36-.56-3.46-3-3.46-2.16,0-3.1,2-3.27,3.46Z"/><path class="cls-1" d="M112.45,5.71h2.14V22.9h-2.14Z"/><path class="cls-1" d="M121.51,7.89a1.32,1.32,0,0,1-2.64,0,1.3,1.3,0,0,1,1.33-1.34A1.27,1.27,0,0,1,121.51,7.89Zm-2.37,15V11.18h2.13V22.9Z"/><path class="cls-1" d="M126.59,11.18l2.31,6.59a30.87,30.87,0,0,1,.94,3h.07c.27-1,.61-1.94,1-3l2.28-6.59h2.23l-4.6,11.72h-2l-4.45-11.72Z"/><path class="cls-1" d="M139.33,17.43a3.76,3.76,0,0,0,4,4.07,7.61,7.61,0,0,0,3.24-.61l.37,1.53a9.69,9.69,0,0,1-3.9.72c-3.61,0-5.76-2.37-5.76-5.91s2.08-6.32,5.49-6.32c3.83,0,4.85,3.37,4.85,5.52a6.89,6.89,0,0,1-.08,1Zm6.25-1.53c0-1.36-.56-3.46-3-3.46-2.15,0-3.1,2-3.27,3.46Z"/><path class="cls-1" d="M151.24,14.84c0-1.38,0-2.57-.09-3.66H153l.07,2.3h.1a3.52,3.52,0,0,1,3.24-2.57A2.2,2.2,0,0,1,157,11v2a3.13,3.13,0,0,0-.73-.08,3,3,0,0,0-2.85,2.74,5.81,5.81,0,0,0-.1,1V22.9h-2.11Z"/><path class="cls-1" d="M161.51,11.18l2.56,6.92c.27.78.56,1.7.76,2.4h0c.22-.7.46-1.6.75-2.44L168,11.18h2.25L167,19.53c-1.53,4-2.57,6.08-4,7.34a5.8,5.8,0,0,1-2.61,1.38l-.53-1.79a5.71,5.71,0,0,0,1.86-1A6.45,6.45,0,0,0,163.49,23a1.39,1.39,0,0,0,.17-.5,2.09,2.09,0,0,0-.14-.56l-4.34-10.8Z"/></g></g></svg>