<svg xmlns="http://www.w3.org/2000/svg" width="17" height="10" viewBox="0 0 17 10">
    <path fill="#FFF" fill-rule="evenodd" d="M16.224 9.958l-2.27.033s-.488.099-1.13-.355c-.849-.601-1.65-2.164-2.274-1.96-.633.207-.613 1.613-.613 1.613s.005.3-.14.46c-.156.174-.463.21-.463.21H8.318s-2.242.138-4.218-1.982c-2.152-2.31-4.054-6.9-4.054-6.9s-.11-.3.01-.446C.189.468.555.457.555.457L2.984.441s.227.04.392.163c.135.103.21.294.21.294s.394 1.024.913 1.95c1.015 1.809 1.487 2.204 1.831 2.01.503-.283.352-2.555.352-2.555s.01-.827-.252-1.194C6.227.824 5.844.741 5.675.72c-.137-.02.088-.346.378-.493.438-.221 1.21-.233 2.122-.224.71.006.915.053 1.193.122.837.209.553 1.014.553 2.945 0 .62-.108 1.489.325 1.777.186.124.642.02 1.78-1.975.538-.943.944-2.055.944-2.055s.087-.198.226-.283c.14-.086.329-.06.329-.06L16.08.458s.769-.094.893.264c.13.375-.287 1.251-1.332 2.686-1.714 2.357-1.906 2.136-.481 3.5 1.36 1.3 1.642 1.934 1.688 2.012.562.963-.625 1.04-.625 1.04"/>
</svg>
