<svg xmlns="http://www.w3.org/2000/svg" xmlns:xlink="http://www.w3.org/1999/xlink" width="40" height="40" viewBox="0 0 40 40">
    <defs>
        <path id="a" d="M0 0h40v40H0z"/>
    </defs>
    <g fill="none" fill-rule="evenodd">
        <mask id="b" fill="#fff">
            <use xlink:href="#a"/>
        </mask>
        <path fill="#FFF" d="M28.678 26.691l-2.671.037s-.574.113-1.33-.405c-.998-.686-1.941-2.469-2.675-2.236-.745.236-.721 1.84-.721 1.84s.005.343-.165.526c-.184.198-.545.238-.545.238h-1.196s-2.637.158-4.962-2.26c-2.533-2.638-4.77-7.874-4.77-7.874s-.13-.343.01-.509c.158-.187.588-.199.588-.199l2.858-.018s.268.045.462.186a.899.899 0 0 1 .247.335s.463 1.17 1.074 2.226c1.194 2.063 1.75 2.514 2.155 2.293.59-.323.414-2.916.414-2.916s.01-.943-.297-1.362c-.24-.325-.69-.42-.888-.446-.161-.02.103-.394.445-.562.515-.252 1.423-.266 2.496-.255.836.007 1.077.06 1.404.14.985.237.65 1.156.65 3.36 0 .706-.126 1.698.383 2.027.219.142.755.022 2.094-2.253.634-1.077 1.11-2.345 1.11-2.345s.104-.226.267-.323c.165-.099.387-.068.387-.068l3.008-.019s.904-.107 1.05.301c.154.428-.337 1.428-1.567 3.065-2.017 2.69-2.242 2.438-.566 3.993 1.6 1.485 1.932 2.208 1.986 2.297.662 1.1-.735 1.186-.735 1.186M20 .001C8.954 0 0 8.953 0 20c0 11.044 8.954 20 20 20s20-8.956 20-20C40 8.953 31.046 0 20 0" mask="url(#b)"/>
    </g>
</svg>
