<svg xmlns="http://www.w3.org/2000/svg" width="30.072" height="24.642" viewBox="0 0 30.072 24.642"><defs><style>.a{fill:#fff;}</style></defs><g transform="translate(0 -46.228)"><g transform="translate(0 46.228)"><g transform="translate(0 0)"><path class="a" d="M23.844,54.524A8.408,8.408,0,0,0,7.207,52.911H7.127a7.127,7.127,0,1,0,0,14.254H9.742a.641.641,0,0,0,0-1.283H7.127a5.844,5.844,0,1,1,0-11.688c.172,0,.353.009.555.028a.642.642,0,0,0,.7-.552,7.125,7.125,0,0,1,14.185.971c0,.142-.026.508-.026.508a.641.641,0,0,0,.7.683,5.116,5.116,0,0,1,.511-.026,5.038,5.038,0,1,1,0,10.076H20.879a.641.641,0,0,0,0,1.283h2.872a6.321,6.321,0,0,0,.093-12.641Z" transform="translate(0 -46.228)"/></g></g><g transform="translate(10.087 49.242)"><path class="a" d="M177.085,97.548a5.41,5.41,0,0,0-5.34,4.662.641.641,0,1,0,1.271.173,4.122,4.122,0,0,1,4.069-3.552.641.641,0,0,0,0-1.283Z" transform="translate(-171.74 -97.548)"/></g><g transform="translate(12.058 60.406)"><g transform="translate(0 0)"><path class="a" d="M211.642,294.832a.641.641,0,0,0-.906-.051l-1.543,1.378v-7.89a.641.641,0,1,0-1.283,0v7.89l-1.543-1.378a.641.641,0,1,0-.855.957l2.333,2.084a1.058,1.058,0,0,0,1.411,0l2.333-2.084A.641.641,0,0,0,211.642,294.832Z" transform="translate(-205.3 -287.628)"/></g></g></g></svg>