<svg id="delete-button" xmlns="http://www.w3.org/2000/svg" width="28.708" height="35.501" viewBox="0 0 28.708 35.501">
  <g id="Group_8" data-name="Group 8" transform="translate(0)">
    <path id="Path_29" data-name="Path 29" d="M70.807,4.253H65.281a4.8,4.8,0,0,0-9.545,0H50.21a4.06,4.06,0,0,0-4.055,4.056v.208a4.06,4.06,0,0,0,2.563,3.768v19.16A4.06,4.06,0,0,0,52.774,35.5H68.244A4.06,4.06,0,0,0,72.3,31.445V12.285a4.06,4.06,0,0,0,2.563-3.768V8.309A4.06,4.06,0,0,0,70.807,4.253Zm-10.3-2.33a2.887,2.887,0,0,1,2.829,2.33H57.68A2.887,2.887,0,0,1,60.509,1.924Zm9.867,29.521a2.135,2.135,0,0,1-2.132,2.132H52.774a2.135,2.135,0,0,1-2.132-2.132V12.573H70.376ZM72.939,8.517a2.135,2.135,0,0,1-2.132,2.132H50.21a2.135,2.135,0,0,1-2.132-2.132V8.309A2.135,2.135,0,0,1,50.21,6.177h20.6a2.135,2.135,0,0,1,2.132,2.132v.208Z" transform="translate(-46.155)" fill="#fff"/>
    <path id="Path_30" data-name="Path 30" d="M159.037,262.323a.962.962,0,0,0,.962-.962V250.533a.962.962,0,1,0-1.923,0v10.829A.962.962,0,0,0,159.037,262.323Z" transform="translate(-149.839 -231.206)" fill="#fff"/>
    <path id="Path_31" data-name="Path 31" d="M229.107,262.323a.962.962,0,0,0,.962-.962V250.533a.962.962,0,1,0-1.924,0v10.829A.962.962,0,0,0,229.107,262.323Z" transform="translate(-214.753 -231.206)" fill="#fff"/>
    <path id="Path_32" data-name="Path 32" d="M299.176,262.323a.962.962,0,0,0,.962-.962V250.533a.962.962,0,1,0-1.923,0v10.829A.962.962,0,0,0,299.176,262.323Z" transform="translate(-279.666 -231.206)" fill="#fff"/>
  </g>
</svg>
