<svg id="edit" xmlns="http://www.w3.org/2000/svg" width="35.687" height="35.507" viewBox="0 0 35.687 35.507">
  <path id="Path_33" data-name="Path 33" d="M32.937,58a.889.889,0,0,0-.889.889v7.891a2.669,2.669,0,0,1-2.666,2.666H4.444a2.669,2.669,0,0,1-2.666-2.666V43.616a2.669,2.669,0,0,1,2.666-2.666h7.891a.889.889,0,0,0,0-1.778H4.444A4.449,4.449,0,0,0,0,43.616V66.777a4.449,4.449,0,0,0,4.444,4.444H29.382a4.449,4.449,0,0,0,4.444-4.444V58.885A.889.889,0,0,0,32.937,58Zm0,0" transform="translate(0 -35.714)" fill="#fff"/>
  <path id="Path_34" data-name="Path 34" d="M132.048,1.432a4,4,0,0,0-5.656,0L110.535,17.289a.888.888,0,0,0-.228.391l-2.085,7.528a.889.889,0,0,0,1.094,1.094l7.528-2.086a.889.889,0,0,0,.391-.228L133.091,8.131a4,4,0,0,0,0-5.656ZM112.472,17.866,125.449,4.889l4.185,4.185L116.657,22.052Zm-.836,1.678,3.344,3.344-4.625,1.281Zm20.2-12.669-.943.943-4.186-4.186.943-.943a2.222,2.222,0,0,1,3.142,0l1.043,1.043A2.225,2.225,0,0,1,131.834,6.875Zm0,0" transform="translate(-98.574 -0.261)" fill="#fff"/>
</svg>
