<svg xmlns="http://www.w3.org/2000/svg" xmlns:xlink="http://www.w3.org/1999/xlink" width="235.131" height="235.131" viewBox="0 0 235.131 235.131">
  <defs>
    <filter id="Ellipse_1" x="0" y="0" width="235.131" height="235.131" filterUnits="userSpaceOnUse">
      <feOffset dy="3" input="SourceAlpha"/>
      <feGaussianBlur stdDeviation="3" result="blur"/>
      <feFlood flood-opacity="0.161"/>
      <feComposite operator="in" in2="blur"/>
      <feComposite in="SourceGraphic"/>
    </filter>
  </defs>
  <g id="Group_3" data-name="Group 3" transform="translate(-32.835 -8.836)">
    <g transform="matrix(1, 0, 0, 1, 32.84, 8.84)" filter="url(#Ellipse_1)">
      <circle id="Ellipse_1-2" data-name="Ellipse 1" cx="108.565" cy="108.565" r="108.565" transform="translate(9 6)" fill="#fff"/>
    </g>
    <g id="invoice" transform="translate(104.298 62.056)">
      <g id="Group_2" data-name="Group 2" transform="translate(0)">
        <g id="Group_1" data-name="Group 1">
          <path id="Path_1" data-name="Path 1" d="M154.853,26.19,129.409.745A2.542,2.542,0,0,0,127.61,0H74.177A10.189,10.189,0,0,0,64,10.178V111.954a10.189,10.189,0,0,0,10.178,10.177h71.243A10.189,10.189,0,0,0,155.6,111.954V27.988A2.542,2.542,0,0,0,154.853,26.19Zm-24.7-17.5,16.757,16.757H135.243a5.094,5.094,0,0,1-5.089-5.089ZM150.51,111.954a5.094,5.094,0,0,1-5.089,5.089H74.178a5.094,5.094,0,0,1-5.089-5.089V10.178a5.094,5.094,0,0,1,5.089-5.089h50.888V20.355a10.189,10.189,0,0,0,10.178,10.177H150.51Z" transform="translate(-64 0)" fill="#707070"/>
          <path id="Path_2" data-name="Path 2" d="M186.521,298.667H130.544a2.544,2.544,0,0,0,0,5.089h55.977a2.544,2.544,0,1,0,0-5.089Z" transform="translate(-112.734 -227.423)" fill="#707070"/>
          <path id="Path_3" data-name="Path 3" d="M186.521,234.667H130.544a2.545,2.545,0,0,0,0,5.089h55.977a2.545,2.545,0,1,0,0-5.089Z" transform="translate(-112.734 -178.69)" fill="#707070"/>
          <path id="Path_4" data-name="Path 4" d="M186.521,362.667H130.544a2.544,2.544,0,0,0,0,5.089h55.977a2.544,2.544,0,1,0,0-5.089Z" transform="translate(-112.734 -276.157)" fill="#707070"/>
          <path id="Path_5" data-name="Path 5" d="M161.077,426.667H130.545a2.544,2.544,0,1,0,0,5.089h30.533a2.544,2.544,0,1,0,0-5.089Z" transform="translate(-112.734 -324.891)" fill="#707070"/>
          <path id="Path_6" data-name="Path 6" d="M234.667,173.211a2.543,2.543,0,0,0,2.545,2.544h30.533a2.544,2.544,0,1,0,0-5.089H237.212A2.543,2.543,0,0,0,234.667,173.211Z" transform="translate(-193.956 -129.956)" fill="#707070"/>
          <path id="Path_7" data-name="Path 7" d="M135.633,97.565h-5.089a2.544,2.544,0,1,0,0,5.089h2.544a2.545,2.545,0,1,0,5.089,0v-.469a7.615,7.615,0,0,0-2.545-14.8,2.544,2.544,0,1,1,0-5.089h5.089a2.544,2.544,0,0,0,0-5.089h-2.545a2.544,2.544,0,1,0-5.089,0v.469a7.615,7.615,0,0,0,2.545,14.8,2.544,2.544,0,1,1,0,5.089Z" transform="translate(-112.734 -56.855)" fill="#707070"/>
        </g>
      </g>
    </g>
  </g>
</svg>
